# AST/ASF file generated using VICON BodyLanguage
# -----------------------------------------------
:version 1.10
:name VICON
:units
  mass 1.0
  length 0.45
  angle deg
:documentation
   .ast/.asf automatically generated from VICON data using
   VICON BodyBuilder and BodyLanguage model FoxedUp or BRILLIANT.MOD
:root
   order TX TY TZ RX RY RZ
   axis XYZ
   position 0 0 0  
   orientation 0 0 0 
:bonedata
  begin
     id 1 
     name lhipjoint
     direction 0.653368 -0.678499 0.335782 
     length 2.51848 
     axis 0 0 0  XYZ
  end
  begin
     id 2 
     name lfemur
     direction 0.34202 -0.939693 0  
     length 6.57749  
     axis 0 0 20  XYZ
    dof rx ry rz
    limits (-160.0 20.0)
           (-70.0 70.0)
           (-60.0 70.0)
  end
  begin
     id 3 
     name ltibia
     direction 0.34202 -0.939693 0   
     length 7.94618   
     axis 0 0 20   XYZ
    dof rx
    limits (-10.0 170.0)
  end
  begin
     id 4 
     name lfoot
     direction 0.0811271 -0.222895 0.971461   
     length 2.31339   
     axis -90 7.62852e-016 20   XYZ
    dof rx rz
    limits (-45.0 90.0)
           (-70.0 20.0)
  end
  begin
     id 5 
     name ltoes
     direction 1.53568e-011 -4.21885e-011 1   
     length 1.15935   
     axis -90 7.62852e-016 20   XYZ
    dof rx
    limits (-90.0 20.0)
  end
  begin
     id 6 
     name rhipjoint
     direction -0.640058 -0.688614 0.340788   
     length 2.48149  
     axis 0 0 0  XYZ 
  end
  begin
     id 7 
     name rfemur
     direction -0.34202 -0.939693 0   
     length 6.57875   
     axis 0 0 -20   XYZ
    dof rx ry rz
    limits (-160.0 20.0)
           (-70.0 70.0)
           (-70.0 60.0)
  end
  begin
     id 8 
     name rtibia
     direction -0.34202 -0.939693 0   
     length 7.977   
     axis 0 0 -20   XYZ
    dof rx
    limits (-10.0 170.0)
 end
 begin
     id 9 
     name rfoot
     direction -0.0979793 -0.269196 0.958089   
     length 2.19857  
     axis -90 -7.62852e-016 -20   XYZ
    dof rx rz
    limits (-45.0 90.0)
           (-20.0 70.0)
  end
  begin
     id 10 
     name rtoes
     direction -1.53556e-011 -4.21868e-011 1   
     length 1.09838   
     axis -90 -7.62852e-016 -20   XYZ
    dof rx
    limits (-90.0 20.0)
  end
  begin
     id 11 
     name lowerback
     direction 0.0149039 0.998517 -0.0523597   
     length 2.10809   
     axis 0 0 0   XYZ
    dof rx ry rz
    limits (-20.0 45.0)
           (-30.0 30.0)
           (-30.0 30.0)
  end
  begin
     id 12 
     name upperback
     direction -0.00882659 0.999418 -0.0329624   
     length 2.1102   
     axis 0 0 0   XYZ
    dof rx ry rz
    limits (-20.0 45.0)
           (-30.0 30.0)
           (-30.0 30.0)
  end
  begin
     id 13 
     name thorax
     direction -0.0165585 0.999826 -0.0085833   
     length 2.11039   
     axis 0 0 0   XYZ
    dof rx ry rz
    limits (-20.0 45.0)
           (-30.0 30.0)
           (-30.0 30.0)
  end
  begin
     id 14 
     name lowerneck
     direction -0.0130877 0.999911 0.00260353   
     length 1.73253   
     axis 0 0 0   XYZ
    dof rx ry rz
    limits (-20.0 45.0)
           (-30.0 30.0)
           (-30.0 30.0)
  end
  begin
     id 15 
     name upperneck
     direction -0.0348454 0.928205 -0.370435   
     length 1.66692   
     axis 0 0 0   XYZ
    dof rx ry rz
    limits (-20.0 45.0)
           (-30.0 30.0)
           (-30.0 30.0)
  end
  begin
     id 16
     name head
     direction -0.00807754 0.992494 -0.122026  
     length 1.72765  
     axis 0 0 0   XYZ
    dof rx ry rz
    limits (-20.0 45.0)
           (-30.0 30.0)
           (-30.0 30.0)
  end
  begin
     id 17 
     name lclavicle
     direction 0.987582 0.144023 0.0627671  
     length 3.49235  
     axis 0 0 0   XYZ
    dof ry rz
    limits (-20.0 10.0)
           (0.0 20.0)
  end
  begin
     id 18 
     name lhumerus
     direction 1 -4.48958e-011 -1.45183e-018   
     length 5.41917   
     axis 180 -30 -90   XYZ
    dof rx ry rz
    limits (-60.0 90.0)
           (-90.0 90.0)
           (-90.0 90.0)
  end
  begin
     id 19
     name lradius
     direction 1 -4.48999e-011 5.75106e-027   
     length 2.44373   
     axis 180 -30 -90   XYZ
    dof rx
    limits (-10.0 170.0)
  end
  begin
     id 20
     name lwrist
     direction 1 -4.48987e-011 1.53461e-026   
     length 1.22186   
     axis -1.09697e-014 90 90   XYZ
    dof ry
    limits (-180.0 0.0)
 end
  begin
     id 21 
     name lhand
     direction 1 -4.48881e-011 3.06923e-026   
     length 0.727502   
     axis -1.95843e-014 90 90   XYZ
    dof rx rz
    limits (-90.0 90.0)
           (-45.0 45.0)
  end
  begin
     id 22 
     name lfingers
     direction 1 -4.48907e-011 6.13845e-026   
     length 0.586531   
     axis -3.91686e-014 90 90   XYZ
    dof rx
    limits (0.0 90.0)
  end
  begin
     id 23
     name lthumb
     direction 0.707107 -6.3487e-011 0.707107   
     length 0.842145   
     axis -90 45 2.85299e-015   XYZ
    dof rx rz
    limits (-45.0 45.0)
           (-45.0 45.0)
  end
  begin
     id 24 
     name rclavicle
     direction -0.980998 0.169556 0.0943023   
     length 3.29272  
     axis 0 0 0   XYZ 
    dof ry rz
    limits (-10.0 20.0)
           (-20.0 0.0)
  end
  begin
     id 25 
     name rhumerus
     direction -1 -1.83355e-005 2.45537e-005  
     length 5.58976   
     axis 180 30 90   XYZ
    dof rx ry rz
    limits (-90.0 60.0)
           (-90.0 90.0)
           (-90.0 90.0)
  end
  begin
     id 26 
     name rradius
     direction -1 -4.48967e-011 5.97228e-027   
     length 2.4806   
     axis 180 30 90   XYZ
    dof rx
    limits (-10.0 170.0)
  end
  begin
     id 27 
     name rwrist
     direction -1 -4.48963e-011 1.53461e-026   
     length 1.2403   
     axis -1.09697e-014 -90 -90   XYZ
    dof ry
    limits (-180.0 0.0)
  end
  begin
     id 28
     name rhand
     direction -1 -4.48881e-011 3.06923e-026   
     length 0.816009   
     axis -1.95843e-014 -90 -90   XYZ
    dof rx rz
    limits (-90.0 90.0)
           (-45.0 45.0)
  end
  begin
     id 29
     name rfingers
     direction -1 -4.49018e-011 6.13845e-026   
     length 0.657887   
     axis -3.91686e-014 -90 -90   XYZ
    dof rx
    limits (0.0 90.0)
  end
  begin
     id 30
     name rthumb
     direction -0.707107 -6.34872e-011 0.707107   
     length 0.944599   
     axis -90 -45 -2.85299e-015   XYZ
    dof rx rz
    limits (-45.0 45.0)
           (-45.0 45.0)
  end
:hierarchy
  begin
    root lhipjoint rhipjoint lowerback
    lhipjoint lfemur
    lfemur ltibia
    ltibia lfoot
    lfoot ltoes
    rhipjoint rfemur
    rfemur rtibia
    rtibia rfoot
    rfoot rtoes
    lowerback upperback
    upperback thorax
    thorax lowerneck lclavicle rclavicle
    lowerneck upperneck
    upperneck head
    lclavicle lhumerus
    lhumerus lradius
    lradius lwrist
    lwrist lhand lthumb
    lhand lfingers
    rclavicle rhumerus
    rhumerus rradius
    rradius rwrist
    rwrist rhand rthumb
    rhand rfingers
  end

#!OML:ASF F:\VICON\USERDATA\INSTALL\rory3\rory3.ASF
:FULLY-SPECIFIED
:DEGREES
172
root 2.42272 16.716 12.0776 25.8644 1.91839 5.24547
lowerback -10.5911 -1.94098 -3.18048
upperback -7.33842 -2.32974 -2.11925
thorax -1.68536 -1.1067 -0.620364
lowerneck -21.4702 -2.06556 -4.71251
upperneck 33.3135 -1.99445 2.09765
head 15.3741 -1.1483 1.31775
rclavicle -1.2424e-015 2.18663e-014
rhumerus -49.0429 -7.17582 -75.9258
rradius 25.9979
rwrist -18.5771
rhand 2.6555 6.94232
rfingers 7.12502
rthumb 28.1313 -20.9675
lclavicle -1.2424e-015 2.18663e-014
lhumerus -54.0355 13.7581 66.8201
lradius 36.2011
lwrist 3.81847
lhand -1.19929 21.1079
lfingers 7.12502
lthumb 24.4412 49.5687
rfemur -57.8099 6.93785 22.2932
rtibia 42.1314
rfoot -41.4632 -34.303
rtoes 45.5011
lfemur -19.2154 -1.50492 -35.1611
ltibia 28.1578
lfoot -21.9545 15.1581
ltoes -26.6926
173
root 2.42506 16.7059 12.1268 26.0338 2.00097 5.40652
lowerback -11.6286 -1.96631 -3.27441
upperback -6.90068 -2.28262 -2.15382
thorax -0.662996 -1.09292 -0.642563
lowerneck -22.0583 -2.14328 -4.86902
upperneck 33.2322 -2.06612 2.24284
head 15.4787 -1.17246 1.38981
rclavicle -1.83876e-015 -7.55382e-015
rhumerus -48.4413 -7.27883 -76.141
rradius 25.6002
rwrist -17.6735
rhand 2.16124 7.20015
rfingers 7.12502
rthumb 27.6588 -20.7864
lclavicle -1.83876e-015 -7.55382e-015
lhumerus -53.3191 14.7955 66.271
lradius 35.4457
lwrist 3.94259
lhand -0.819 20.9931
lfingers 7.12502
lthumb 24.8057 49.4043
rfemur -57.8295 8.38161 21.0457
rtibia 42.0007
rfoot -44.3019 -34.451
rtoes 46.5459
lfemur -19.0209 -1.49075 -35.2773
ltibia 27.8773
lfoot -21.842 15.0561
ltoes -26.8921
174
root 2.42904 16.6929 12.1751 26.1739 2.25576 5.42814
lowerback -11.4695 -1.98542 -3.15401
upperback -7.36883 -2.34489 -2.12773
thorax -1.24367 -1.11922 -0.675538
lowerneck -21.6585 -2.09556 -4.77349
upperneck 33.2829 -1.97925 2.03725
head 15.4028 -1.1567 1.3048
rclavicle -6.53505e-015 1.31198e-014
rhumerus -49.2921 -6.92364 -76.1904
rradius 25.4979
rwrist -16.9006
rhand 1.81061 7.01005
rfingers 7.12502
rthumb 27.3235 -21.0298
lclavicle -6.53505e-015 1.31198e-014
lhumerus -54.1753 15.0739 65.4955
lradius 35.0289
lwrist 4.13832
lhand -0.568602 20.6645
lfingers 7.12502
lthumb 25.0456 49.0424
rfemur -57.824 9.56317 20.1536
rtibia 41.8294
rfoot -46.7723 -34.5016
rtoes 47.8465
lfemur -18.8494 -1.44624 -35.2038
ltibia 27.6823
lfoot -21.637 14.8521
ltoes -27.3488
175
root 2.4301 16.6853 12.2291 26.416 2.45466 5.48995
lowerback -11.7104 -2.00959 -3.17331
upperback -7.72792 -2.37505 -2.06914
thorax -1.48925 -1.12788 -0.609392
lowerneck -21.1809 -2.03731 -4.78084
upperneck 33.2012 -1.87533 1.93218
head 15.249 -1.13073 1.28264
rclavicle -2.65874e-014 -3.83654e-014
rhumerus -49.8928 -6.70698 -76.0899
rradius 25.1544
rwrist -15.919
rhand 1.72533 6.84774
rfingers 7.12502
rthumb 27.2419 -21.2049
lclavicle -2.65874e-014 -3.83654e-014
lhumerus -54.9651 15.3203 64.8574
lradius 34.7209
lwrist 4.26915
lhand -0.349527 20.5269
lfingers 7.12502
lthumb 25.2555 48.8754
rfemur -57.9027 10.5726 19.3376
rtibia 41.7068
rfoot -49.0628 -34.4459
rtoes 48.7521
lfemur -18.7765 -1.3493 -35.1779
ltibia 27.5646
lfoot -21.6816 14.4575
ltoes -27.457
176
root 2.43611 16.6776 12.2965 26.7701 2.862 5.1243
lowerback -12.2445 -1.99356 -2.61771
upperback -8.15564 -2.39392 -1.92132
thorax -1.66708 -1.15119 -0.779616
lowerneck -20.6852 -2.04707 -5.00741
upperneck 33.4244 -1.89079 2.08859
head 15.2468 -1.14868 1.38908
rclavicle 5.71506e-015 2.22639e-014
rhumerus -50.6168 -6.44696 -75.9524
rradius 24.7527
rwrist -14.7697
rhand 1.74832 7.22401
rfingers 7.12502
rthumb 27.2639 -20.8252
lclavicle 5.71506e-015 2.22639e-014
lhumerus -55.8564 15.4028 64.2991
lradius 34.6786
lwrist 4.56349
lhand -0.268216 21.0643
lfingers 7.12502
lthumb 25.3334 49.4017
rfemur -57.9588 10.8738 19.526
rtibia 41.5752
rfoot -50.1204 -34.6705
rtoes 48.9118
lfemur -18.8488 -1.21611 -34.6645
ltibia 27.5355
lfoot -21.6605 14.1148
ltoes -28.1284
177
root 2.42699 16.6543 12.3212 26.9364 2.68231 5.54167
lowerback -11.9441 -1.9873 -3.175
upperback -8.62233 -2.36439 -2.04448
thorax -2.31117 -1.10831 -0.575205
lowerneck -20.4389 -2.10325 -5.23904
upperneck 33.7784 -2.02533 2.4109
head 15.372 -1.1939 1.54539
rclavicle 1.89342e-014 -6.55989e-015
rhumerus -51.2732 -6.33033 -75.9211
rradius 24.4353
rwrist -13.6194
rhand 1.62221 7.54056
rfingers 7.12502
rthumb 27.1432 -20.5276
lclavicle 1.89342e-014 -6.55989e-015
lhumerus -56.5809 15.2947 63.8169
lradius 34.8617
lwrist 5.10219
lhand 0.2502 22.2245
lfingers 7.12502
lthumb 25.83 50.4906
rfemur -58.2798 12.1738 18.1086
rtibia 41.58
rfoot -52.2043 -35.0607
rtoes 49.4326
lfemur -18.8888 -0.937028 -35.1106
ltibia 27.4252
lfoot -21.3982 13.9253
ltoes -28.6934
178
root 2.43523 16.6413 12.3736 27.0517 2.96147 5.48192
lowerback -12.3251 -1.94341 -2.87249
upperback -8.6566 -2.31495 -2.09513
thorax -2.15575 -1.09888 -0.804281
lowerneck -20.5668 -2.18515 -5.33327
upperneck 33.9337 -2.19423 2.64638
head 15.4894 -1.24336 1.63172
rclavicle 4.34841e-016 -2.90226e-014
rhumerus -51.1836 -6.65098 -75.7314
rradius 23.6945
rwrist -12.2524
rhand 1.45367 7.85409
rfingers 7.12502
rthumb 26.982 -20.2391
lclavicle 4.34841e-016 -2.90226e-014
lhumerus -56.6975 15.5471 63.3296
lradius 34.7382
lwrist 5.4437
lhand 0.515149 23.0183
lfingers 7.12502
lthumb 26.0837 51.2472
rfemur -58.2257 12.03 18.2867
rtibia 41.6745
rfoot -52.4529 -35.3774
rtoes 49.1418
lfemur -18.6688 -0.786598 -34.9429
ltibia 27.2409
lfoot -21.166 13.677
ltoes -29.6291
179
root 2.44895 16.6292 12.4483 27.1507 3.22963 5.4656
lowerback -13.3555 -1.92135 -2.57966
upperback -8.28199 -2.25215 -2.14757
thorax -1.21952 -1.0884 -1.05695
lowerneck -20.9595 -2.19071 -5.05855
upperneck 33.7325 -2.20354 2.43884
head 15.4768 -1.23599 1.48983
rclavicle 1.10077e-014 1.78906e-014
rhumerus -50.5441 -7.10797 -75.4893
rradius 22.7827
rwrist -10.6451
rhand 1.31587 8.74882
rfingers 7.12502
rthumb 26.8501 -19.3647
lclavicle 1.10077e-014 1.78906e-014
lhumerus -56.2186 16.3378 62.7408
lradius 34.2078
lwrist 5.36423
lhand 0.663021 22.8624
lfingers 7.12502
lthumb 26.2253 51.0703
rfemur -57.9647 10.9411 19.1345
rtibia 41.8872
rfoot -51.2286 -35.7239
rtoes 47.9546
lfemur -18.2884 -0.752913 -34.83
ltibia 27.0404
lfoot -21.1789 13.4137
ltoes -30.247
180
root 2.45497 16.6153 12.5255 27.2242 3.25888 5.55545
lowerback -14.5108 -1.92728 -2.6459
upperback -7.79087 -2.18149 -2.15498
thorax -0.0845024 -1.05907 -1.06682
lowerneck -21.3162 -2.09307 -4.63432
upperneck 33.2215 -2.05674 2.06785
head 15.2965 -1.16562 1.27998
rclavicle 1.83876e-015 1.31198e-014
rhumerus -49.8459 -7.65446 -75.1095
rradius 22.0845
rwrist -8.33398
rhand 1.2943 9.54088
rfingers 7.12502
rthumb 26.8295 -18.5758
lclavicle 1.83876e-015 1.31198e-014
lhumerus -55.7557 17.335 62.1412
lradius 33.8018
lwrist 5.08718
lhand 0.702043 22.4909
lfingers 7.12502
lthumb 26.2626 50.6934
rfemur -57.8191 10.5456 19.3851
rtibia 42.1864
rfoot -50.8697 -35.9734
rtoes 47.2833
lfemur -17.8925 -0.692877 -34.8632
ltibia 26.7755
lfoot -21.2769 13.1235
ltoes -30.2889
